<?xml version="1.0" encoding="utf-8"?>
<!-- Generator: Adobe Illustrator 26.1.0, SVG Export Plug-In . SVG Version: 6.00 Build 0)  -->
<svg version="1.1" id="Layer_1" xmlns="http://www.w3.org/2000/svg" xmlns:xlink="http://www.w3.org/1999/xlink" x="0px" y="0px"
	 viewBox="0 0 1220 290" style="enable-background:new 0 0 1220 290;" xml:space="preserve">
<style type="text/css">
	.st0{font-family:'Helvetica-Bold';}
	.st1{font-size:48px;}
</style>
<g>
	<polygon points="550.5,205 350.5,205 450.5,45 	"/>
	<path d="M220.5,135c0,3.4-0.2,6.7-0.6,10h-59.4v67.5c-6.4,1.6-13.1,2.5-20,2.5c-40.8,0-74.5-30.5-79.4-70c-0.4-3.3-0.6-6.6-0.6-10
		c0-44.2,35.8-80,80-80c6.9,0,13.6,0.9,20,2.5C195,66.4,220.5,97.7,220.5,135z"/>
	<polygon points="410.5,45 310.5,205 210.5,45 	"/>
	<polygon points="550.5,205 350.5,205 450.5,45 	"/>
	<rect x="180.5" y="165" width="80" height="80"/>
	<text transform="matrix(1 0 0 1 580.5469 135)" class="st0 st1">Exposição Virtual de Arte</text>
	<text transform="matrix(1 0 0 1 580.5469 186)" class="st0 st1">Tecnologia e Criatividade</text>
</g>
</svg>
