<?xml version="1.0" encoding="utf-8"?>
<!-- Generator: Adobe Illustrator 26.1.0, SVG Export Plug-In . SVG Version: 6.00 Build 0)  -->
<svg version="1.1" id="Layer_1" xmlns="http://www.w3.org/2000/svg" xmlns:xlink="http://www.w3.org/1999/xlink" x="0px" y="0px"
	 viewBox="0 0 680 300" style="enable-background:new 0 0 680 300;" xml:space="preserve">
<style type="text/css">
	.st0{fill:none;stroke:#000000;stroke-miterlimit:10;}
</style>
<g>
	<line class="st0" x1="180" y1="30" x2="30" y2="30"/>
	<line class="st0" x1="173.3" y1="30" x2="30" y2="35.3"/>
	<line class="st0" x1="166.7" y1="30" x2="30" y2="40.7"/>
	<line class="st0" x1="160" y1="30" x2="30" y2="46"/>
	<line class="st0" x1="153.3" y1="30" x2="30" y2="51.3"/>
	<line class="st0" x1="146.7" y1="30" x2="30" y2="56.7"/>
	<line class="st0" x1="140" y1="30" x2="30" y2="62"/>
	<line class="st0" x1="133.3" y1="30" x2="30" y2="67.3"/>
	<line class="st0" x1="126.7" y1="30" x2="30" y2="72.7"/>
	<line class="st0" x1="120" y1="30" x2="30" y2="78"/>
	<line class="st0" x1="113.3" y1="30" x2="30" y2="83.3"/>
	<line class="st0" x1="106.7" y1="30" x2="30" y2="88.7"/>
	<line class="st0" x1="100" y1="30" x2="30" y2="94"/>
	<line class="st0" x1="93.3" y1="30" x2="30" y2="99.3"/>
	<line class="st0" x1="86.7" y1="30" x2="30" y2="104.7"/>
	<line class="st0" x1="80" y1="30" x2="30" y2="110"/>
	<line class="st0" x1="73.3" y1="30" x2="30" y2="115.3"/>
	<line class="st0" x1="66.7" y1="30" x2="30" y2="120.7"/>
	<line class="st0" x1="60" y1="30" x2="30" y2="126"/>
	<line class="st0" x1="53.3" y1="30" x2="30" y2="131.3"/>
	<line class="st0" x1="46.7" y1="30" x2="30" y2="136.7"/>
	<line class="st0" x1="40" y1="30" x2="30" y2="142"/>
	<line class="st0" x1="33.3" y1="30" x2="30" y2="147.3"/>
	<line class="st0" x1="220" y1="270" x2="30" y2="270"/>
	<line class="st0" x1="211.6" y1="270" x2="30" y2="264.7"/>
	<line class="st0" x1="203.1" y1="270" x2="30" y2="259.3"/>
	<line class="st0" x1="194.7" y1="270" x2="30" y2="254"/>
	<line class="st0" x1="186.2" y1="270" x2="30" y2="248.7"/>
	<line class="st0" x1="177.8" y1="270" x2="30" y2="243.3"/>
	<line class="st0" x1="169.3" y1="270" x2="30" y2="238"/>
	<line class="st0" x1="160.9" y1="270" x2="30" y2="232.7"/>
	<line class="st0" x1="152.4" y1="270" x2="30" y2="227.3"/>
	<line class="st0" x1="144" y1="270" x2="30" y2="222"/>
	<line class="st0" x1="135.6" y1="270" x2="30" y2="216.7"/>
	<line class="st0" x1="127.1" y1="270" x2="30" y2="211.3"/>
	<line class="st0" x1="118.7" y1="270" x2="30" y2="206"/>
	<line class="st0" x1="110.2" y1="270" x2="30" y2="200.7"/>
	<line class="st0" x1="101.8" y1="270" x2="30" y2="195.3"/>
	<line class="st0" x1="93.3" y1="270" x2="30" y2="190"/>
	<line class="st0" x1="84.9" y1="270" x2="30" y2="184.7"/>
	<line class="st0" x1="76.4" y1="270" x2="30" y2="179.3"/>
	<line class="st0" x1="68" y1="270" x2="30" y2="174"/>
	<line class="st0" x1="59.6" y1="270" x2="30" y2="168.7"/>
	<line class="st0" x1="51.1" y1="270" x2="30" y2="163.3"/>
	<line class="st0" x1="42.7" y1="270" x2="30" y2="158"/>
	<line class="st0" x1="34.2" y1="270" x2="30" y2="152.7"/>
	<line class="st0" x1="120" y1="150" x2="190" y2="150"/>
	<line class="st0" x1="120" y1="150" x2="189.3" y2="152.1"/>
	<line class="st0" x1="120" y1="150" x2="187.3" y2="154.1"/>
	<line class="st0" x1="120" y1="150" x2="183.9" y2="156.1"/>
	<line class="st0" x1="120" y1="150" x2="179.4" y2="157.9"/>
	<line class="st0" x1="120" y1="150" x2="173.6" y2="159.6"/>
	<line class="st0" x1="120" y1="150" x2="166.8" y2="161.1"/>
	<line class="st0" x1="120" y1="150" x2="159.1" y2="162.4"/>
	<line class="st0" x1="120" y1="150" x2="150.7" y2="163.5"/>
	<line class="st0" x1="120" y1="150" x2="141.6" y2="164.3"/>
	<line class="st0" x1="120" y1="150" x2="132.2" y2="164.8"/>
	<line class="st0" x1="120" y1="150" x2="122.4" y2="165"/>
	<line class="st0" x1="120" y1="150" x2="112.7" y2="164.9"/>
	<line class="st0" x1="120" y1="150" x2="103.1" y2="164.6"/>
	<line class="st0" x1="120" y1="150" x2="93.8" y2="163.9"/>
	<line class="st0" x1="120" y1="150" x2="85" y2="163"/>
	<line class="st0" x1="120" y1="150" x2="76.9" y2="161.8"/>
	<line class="st0" x1="120" y1="150" x2="69.6" y2="160.4"/>
	<line class="st0" x1="120" y1="150" x2="63.4" y2="158.8"/>
	<line class="st0" x1="120" y1="150" x2="58.2" y2="157"/>
	<line class="st0" x1="120" y1="150" x2="54.2" y2="155.1"/>
	<line class="st0" x1="120" y1="150" x2="51.5" y2="153.1"/>
	<line class="st0" x1="120" y1="150" x2="50.2" y2="151"/>
	<line class="st0" x1="120" y1="150" x2="50.2" y2="149"/>
	<line class="st0" x1="120" y1="150" x2="51.5" y2="146.9"/>
	<line class="st0" x1="120" y1="150" x2="54.2" y2="144.9"/>
	<line class="st0" x1="120" y1="150" x2="58.2" y2="143"/>
	<line class="st0" x1="120" y1="150" x2="63.4" y2="141.2"/>
	<line class="st0" x1="120" y1="150" x2="69.6" y2="139.6"/>
	<line class="st0" x1="120" y1="150" x2="76.9" y2="138.2"/>
	<line class="st0" x1="120" y1="150" x2="85" y2="137"/>
	<line class="st0" x1="120" y1="150" x2="93.8" y2="136.1"/>
	<line class="st0" x1="120" y1="150" x2="103.1" y2="135.4"/>
	<line class="st0" x1="120" y1="150" x2="112.7" y2="135.1"/>
	<line class="st0" x1="120" y1="150" x2="122.4" y2="135"/>
	<line class="st0" x1="120" y1="150" x2="132.2" y2="135.2"/>
	<line class="st0" x1="120" y1="150" x2="141.6" y2="135.7"/>
	<line class="st0" x1="120" y1="150" x2="150.7" y2="136.5"/>
	<line class="st0" x1="120" y1="150" x2="159.1" y2="137.6"/>
	<line class="st0" x1="120" y1="150" x2="166.8" y2="138.9"/>
	<line class="st0" x1="120" y1="150" x2="173.6" y2="140.4"/>
	<line class="st0" x1="120" y1="150" x2="179.4" y2="142.1"/>
	<line class="st0" x1="120" y1="150" x2="183.9" y2="143.9"/>
	<line class="st0" x1="120" y1="150" x2="187.3" y2="145.9"/>
	<line class="st0" x1="120" y1="150" x2="189.3" y2="147.9"/>
	<line class="st0" x1="210" y1="30" x2="330" y2="270"/>
	<line class="st0" x1="212.7" y1="35.3" x2="332.7" y2="264.7"/>
	<line class="st0" x1="215.3" y1="40.7" x2="335.3" y2="259.3"/>
	<line class="st0" x1="218" y1="46" x2="338" y2="254"/>
	<line class="st0" x1="220.7" y1="51.3" x2="340.7" y2="248.7"/>
	<line class="st0" x1="223.3" y1="56.7" x2="343.3" y2="243.3"/>
	<line class="st0" x1="226" y1="62" x2="346" y2="238"/>
	<line class="st0" x1="228.7" y1="67.3" x2="348.7" y2="232.7"/>
	<line class="st0" x1="231.3" y1="72.7" x2="351.3" y2="227.3"/>
	<line class="st0" x1="234" y1="78" x2="354" y2="222"/>
	<line class="st0" x1="236.7" y1="83.3" x2="356.7" y2="216.7"/>
	<line class="st0" x1="239.3" y1="88.7" x2="359.3" y2="211.3"/>
	<line class="st0" x1="242" y1="94" x2="362" y2="206"/>
	<line class="st0" x1="244.7" y1="99.3" x2="364.7" y2="200.7"/>
	<line class="st0" x1="247.3" y1="104.7" x2="367.3" y2="195.3"/>
	<line class="st0" x1="250" y1="110" x2="370" y2="190"/>
	<line class="st0" x1="252.7" y1="115.3" x2="372.7" y2="184.7"/>
	<line class="st0" x1="255.3" y1="120.7" x2="375.3" y2="179.3"/>
	<line class="st0" x1="258" y1="126" x2="378" y2="174"/>
	<line class="st0" x1="260.7" y1="131.3" x2="380.7" y2="168.7"/>
	<line class="st0" x1="263.3" y1="136.7" x2="383.3" y2="163.3"/>
	<line class="st0" x1="266" y1="142" x2="386" y2="158"/>
	<line class="st0" x1="268.7" y1="147.3" x2="388.7" y2="152.7"/>
	<line class="st0" x1="271.3" y1="152.7" x2="391.3" y2="147.3"/>
	<line class="st0" x1="274" y1="158" x2="394" y2="142"/>
	<line class="st0" x1="276.7" y1="163.3" x2="396.7" y2="136.7"/>
	<line class="st0" x1="279.3" y1="168.7" x2="399.3" y2="131.3"/>
	<line class="st0" x1="282" y1="174" x2="402" y2="126"/>
	<line class="st0" x1="284.7" y1="179.3" x2="404.7" y2="120.7"/>
	<line class="st0" x1="287.3" y1="184.7" x2="407.3" y2="115.3"/>
	<line class="st0" x1="290" y1="190" x2="410" y2="110"/>
	<line class="st0" x1="292.7" y1="195.3" x2="412.7" y2="104.7"/>
	<line class="st0" x1="295.3" y1="200.7" x2="415.3" y2="99.3"/>
	<line class="st0" x1="298" y1="206" x2="418" y2="94"/>
	<line class="st0" x1="300.7" y1="211.3" x2="420.7" y2="88.7"/>
	<line class="st0" x1="303.3" y1="216.7" x2="423.3" y2="83.3"/>
	<line class="st0" x1="306" y1="222" x2="426" y2="78"/>
	<line class="st0" x1="308.7" y1="227.3" x2="428.7" y2="72.7"/>
	<line class="st0" x1="311.3" y1="232.7" x2="431.3" y2="67.3"/>
	<line class="st0" x1="314" y1="238" x2="434" y2="62"/>
	<line class="st0" x1="316.7" y1="243.3" x2="436.7" y2="56.7"/>
	<line class="st0" x1="319.3" y1="248.7" x2="439.3" y2="51.3"/>
	<line class="st0" x1="322" y1="254" x2="442" y2="46"/>
	<line class="st0" x1="324.7" y1="259.3" x2="444.7" y2="40.7"/>
	<line class="st0" x1="327.3" y1="264.7" x2="447.3" y2="35.3"/>
	<line class="st0" x1="330" y1="270" x2="450" y2="30"/>
	<line class="st0" x1="410" y1="270" x2="520" y2="30"/>
	<line class="st0" x1="412.4" y1="264.7" x2="522.9" y2="35.3"/>
	<line class="st0" x1="414.9" y1="259.3" x2="525.8" y2="40.7"/>
	<line class="st0" x1="417.3" y1="254" x2="528.7" y2="46"/>
	<line class="st0" x1="419.8" y1="248.7" x2="531.6" y2="51.3"/>
	<line class="st0" x1="422.2" y1="243.3" x2="534.4" y2="56.7"/>
	<line class="st0" x1="424.7" y1="238" x2="537.3" y2="62"/>
	<line class="st0" x1="427.1" y1="232.7" x2="540.2" y2="67.3"/>
	<line class="st0" x1="429.6" y1="227.3" x2="543.1" y2="72.7"/>
	<line class="st0" x1="432" y1="222" x2="546" y2="78"/>
	<line class="st0" x1="434.4" y1="216.7" x2="548.9" y2="83.3"/>
	<line class="st0" x1="436.9" y1="211.3" x2="551.8" y2="88.7"/>
	<line class="st0" x1="439.3" y1="206" x2="554.7" y2="94"/>
	<line class="st0" x1="441.8" y1="200.7" x2="557.6" y2="99.3"/>
	<line class="st0" x1="444.2" y1="195.3" x2="560.4" y2="104.7"/>
	<line class="st0" x1="446.7" y1="190" x2="563.3" y2="110"/>
	<line class="st0" x1="449.1" y1="184.7" x2="566.2" y2="115.3"/>
	<line class="st0" x1="451.6" y1="179.3" x2="569.1" y2="120.7"/>
	<line class="st0" x1="454" y1="174" x2="572" y2="126"/>
	<line class="st0" x1="456.4" y1="168.7" x2="574.9" y2="131.3"/>
	<line class="st0" x1="458.9" y1="163.3" x2="577.8" y2="136.7"/>
	<line class="st0" x1="461.3" y1="158" x2="580.7" y2="142"/>
	<line class="st0" x1="463.8" y1="152.7" x2="583.6" y2="147.3"/>
	<line class="st0" x1="466.2" y1="147.3" x2="586.4" y2="152.7"/>
	<line class="st0" x1="468.7" y1="142" x2="589.3" y2="158"/>
	<line class="st0" x1="471.1" y1="136.7" x2="592.2" y2="163.3"/>
	<line class="st0" x1="473.6" y1="131.3" x2="595.1" y2="168.7"/>
	<line class="st0" x1="476" y1="126" x2="598" y2="174"/>
	<line class="st0" x1="478.4" y1="120.7" x2="600.9" y2="179.3"/>
	<line class="st0" x1="480.9" y1="115.3" x2="603.8" y2="184.7"/>
	<line class="st0" x1="483.3" y1="110" x2="606.7" y2="190"/>
	<line class="st0" x1="485.8" y1="104.7" x2="609.6" y2="195.3"/>
	<line class="st0" x1="488.2" y1="99.3" x2="612.4" y2="200.7"/>
	<line class="st0" x1="490.7" y1="94" x2="615.3" y2="206"/>
	<line class="st0" x1="493.1" y1="88.7" x2="618.2" y2="211.3"/>
	<line class="st0" x1="495.6" y1="83.3" x2="621.1" y2="216.7"/>
	<line class="st0" x1="498" y1="78" x2="624" y2="222"/>
	<line class="st0" x1="500.4" y1="72.7" x2="626.9" y2="227.3"/>
	<line class="st0" x1="502.9" y1="67.3" x2="629.8" y2="232.7"/>
	<line class="st0" x1="505.3" y1="62" x2="632.7" y2="238"/>
	<line class="st0" x1="507.8" y1="56.7" x2="635.6" y2="243.3"/>
	<line class="st0" x1="510.2" y1="51.3" x2="638.4" y2="248.7"/>
	<line class="st0" x1="512.7" y1="46" x2="641.3" y2="254"/>
	<line class="st0" x1="515.1" y1="40.7" x2="644.2" y2="259.3"/>
	<line class="st0" x1="517.6" y1="35.3" x2="647.1" y2="264.7"/>
	<line class="st0" x1="520" y1="30" x2="650" y2="270"/>
</g>
</svg>
