<?xml version="1.0" encoding="utf-8"?>
<!-- Generator: Adobe Illustrator 26.1.0, SVG Export Plug-In . SVG Version: 6.00 Build 0)  -->
<svg version="1.1" id="Layer_1" xmlns="http://www.w3.org/2000/svg" xmlns:xlink="http://www.w3.org/1999/xlink" x="0px" y="0px"
	 viewBox="0 0 680 300" style="enable-background:new 0 0 680 300;" xml:space="preserve">
<style type="text/css">
	.st0{fill:none;stroke:#000000;stroke-miterlimit:10;}
</style>
<g>
	<line class="st0" x1="140" y1="30" x2="70" y2="30"/>
	<line class="st0" x1="133.8" y1="30" x2="70" y2="40.7"/>
	<line class="st0" x1="127.6" y1="30" x2="70" y2="51.3"/>
	<line class="st0" x1="121.3" y1="30" x2="70" y2="62"/>
	<line class="st0" x1="115.1" y1="30" x2="70" y2="72.7"/>
	<line class="st0" x1="108.9" y1="30" x2="70" y2="83.3"/>
	<line class="st0" x1="102.7" y1="30" x2="70" y2="94"/>
	<line class="st0" x1="96.4" y1="30" x2="70" y2="104.7"/>
	<line class="st0" x1="90.2" y1="30" x2="70" y2="115.3"/>
	<line class="st0" x1="84" y1="30" x2="70" y2="126"/>
	<line class="st0" x1="77.8" y1="30" x2="70" y2="136.7"/>
	<line class="st0" x1="71.6" y1="30" x2="70" y2="147.3"/>
	<line class="st0" x1="250" y1="150" x2="230" y2="30"/>
	<line class="st0" x1="248.7" y1="142" x2="223.3" y2="30"/>
	<line class="st0" x1="247.3" y1="134" x2="216.7" y2="30"/>
	<line class="st0" x1="246" y1="126" x2="210" y2="30"/>
	<line class="st0" x1="244.7" y1="118" x2="203.3" y2="30"/>
	<line class="st0" x1="243.3" y1="110" x2="196.7" y2="30"/>
	<line class="st0" x1="242" y1="102" x2="190" y2="30"/>
	<line class="st0" x1="240.7" y1="94" x2="183.3" y2="30"/>
	<line class="st0" x1="239.3" y1="86" x2="176.7" y2="30"/>
	<line class="st0" x1="238" y1="78" x2="170" y2="30"/>
	<line class="st0" x1="236.7" y1="70" x2="163.3" y2="30"/>
	<line class="st0" x1="235.3" y1="62" x2="156.7" y2="30"/>
	<line class="st0" x1="234" y1="54" x2="150" y2="30"/>
	<line class="st0" x1="232.7" y1="46" x2="143.3" y2="30"/>
	<line class="st0" x1="231.3" y1="38" x2="136.7" y2="30"/>
	<line class="st0" x1="230" y1="30" x2="130" y2="30"/>
	<line class="st0" x1="250" y1="150" x2="130" y2="180"/>
	<line class="st0" x1="242" y1="152" x2="128.7" y2="175.3"/>
	<line class="st0" x1="234" y1="154" x2="127.3" y2="170.7"/>
	<line class="st0" x1="226" y1="156" x2="126" y2="166"/>
	<line class="st0" x1="218" y1="158" x2="124.7" y2="161.3"/>
	<line class="st0" x1="210" y1="160" x2="123.3" y2="156.7"/>
	<line class="st0" x1="202" y1="162" x2="122" y2="152"/>
	<line class="st0" x1="194" y1="164" x2="120.7" y2="147.3"/>
	<line class="st0" x1="186" y1="166" x2="119.3" y2="142.7"/>
	<line class="st0" x1="178" y1="168" x2="118" y2="138"/>
	<line class="st0" x1="170" y1="170" x2="116.7" y2="133.3"/>
	<line class="st0" x1="162" y1="172" x2="115.3" y2="128.7"/>
	<line class="st0" x1="154" y1="174" x2="114" y2="124"/>
	<line class="st0" x1="146" y1="176" x2="112.7" y2="119.3"/>
	<line class="st0" x1="138" y1="178" x2="111.3" y2="114.7"/>
	<line class="st0" x1="130" y1="180" x2="110" y2="110"/>
	<line class="st0" x1="260" y1="270" x2="70" y2="270"/>
	<line class="st0" x1="251.6" y1="270" x2="70" y2="264.7"/>
	<line class="st0" x1="243.1" y1="270" x2="70" y2="259.3"/>
	<line class="st0" x1="234.7" y1="270" x2="70" y2="254"/>
	<line class="st0" x1="226.2" y1="270" x2="70" y2="248.7"/>
	<line class="st0" x1="217.8" y1="270" x2="70" y2="243.3"/>
	<line class="st0" x1="209.3" y1="270" x2="70" y2="238"/>
	<line class="st0" x1="200.9" y1="270" x2="70" y2="232.7"/>
	<line class="st0" x1="192.4" y1="270" x2="70" y2="227.3"/>
	<line class="st0" x1="184" y1="270" x2="70" y2="222"/>
	<line class="st0" x1="175.6" y1="270" x2="70" y2="216.7"/>
	<line class="st0" x1="167.1" y1="270" x2="70" y2="211.3"/>
	<line class="st0" x1="158.7" y1="270" x2="70" y2="206"/>
	<line class="st0" x1="150.2" y1="270" x2="70" y2="200.7"/>
	<line class="st0" x1="141.8" y1="270" x2="70" y2="195.3"/>
	<line class="st0" x1="133.3" y1="270" x2="70" y2="190"/>
	<line class="st0" x1="124.9" y1="270" x2="70" y2="184.7"/>
	<line class="st0" x1="116.4" y1="270" x2="70" y2="179.3"/>
	<line class="st0" x1="108" y1="270" x2="70" y2="174"/>
	<line class="st0" x1="99.6" y1="270" x2="70" y2="168.7"/>
	<line class="st0" x1="91.1" y1="270" x2="70" y2="163.3"/>
	<line class="st0" x1="82.7" y1="270" x2="70" y2="158"/>
	<line class="st0" x1="74.2" y1="270" x2="70" y2="152.7"/>
	<line class="st0" x1="250" y1="30" x2="290" y2="270"/>
	<line class="st0" x1="250.9" y1="35.3" x2="294.4" y2="264.7"/>
	<line class="st0" x1="251.8" y1="40.7" x2="298.9" y2="259.3"/>
	<line class="st0" x1="252.7" y1="46" x2="303.3" y2="254"/>
	<line class="st0" x1="253.6" y1="51.3" x2="307.8" y2="248.7"/>
	<line class="st0" x1="254.4" y1="56.7" x2="312.2" y2="243.3"/>
	<line class="st0" x1="255.3" y1="62" x2="316.7" y2="238"/>
	<line class="st0" x1="256.2" y1="67.3" x2="321.1" y2="232.7"/>
	<line class="st0" x1="257.1" y1="72.7" x2="325.6" y2="227.3"/>
	<line class="st0" x1="258" y1="78" x2="330" y2="222"/>
	<line class="st0" x1="258.9" y1="83.3" x2="334.4" y2="216.7"/>
	<line class="st0" x1="259.8" y1="88.7" x2="338.9" y2="211.3"/>
	<line class="st0" x1="260.7" y1="94" x2="343.3" y2="206"/>
	<line class="st0" x1="261.6" y1="99.3" x2="347.8" y2="200.7"/>
	<line class="st0" x1="262.4" y1="104.7" x2="352.2" y2="195.3"/>
	<line class="st0" x1="263.3" y1="110" x2="356.7" y2="190"/>
	<line class="st0" x1="264.2" y1="115.3" x2="361.1" y2="184.7"/>
	<line class="st0" x1="265.1" y1="120.7" x2="365.6" y2="179.3"/>
	<line class="st0" x1="266" y1="126" x2="370" y2="174"/>
	<line class="st0" x1="266.9" y1="131.3" x2="374.4" y2="168.7"/>
	<line class="st0" x1="267.8" y1="136.7" x2="378.9" y2="163.3"/>
	<line class="st0" x1="268.7" y1="142" x2="383.3" y2="158"/>
	<line class="st0" x1="269.6" y1="147.3" x2="387.8" y2="152.7"/>
	<line class="st0" x1="270.4" y1="152.7" x2="392.2" y2="147.3"/>
	<line class="st0" x1="271.3" y1="158" x2="396.7" y2="142"/>
	<line class="st0" x1="272.2" y1="163.3" x2="401.1" y2="136.7"/>
	<line class="st0" x1="273.1" y1="168.7" x2="405.6" y2="131.3"/>
	<line class="st0" x1="274" y1="174" x2="410" y2="126"/>
	<line class="st0" x1="274.9" y1="179.3" x2="414.4" y2="120.7"/>
	<line class="st0" x1="275.8" y1="184.7" x2="418.9" y2="115.3"/>
	<line class="st0" x1="276.7" y1="190" x2="423.3" y2="110"/>
	<line class="st0" x1="277.6" y1="195.3" x2="427.8" y2="104.7"/>
	<line class="st0" x1="278.4" y1="200.7" x2="432.2" y2="99.3"/>
	<line class="st0" x1="279.3" y1="206" x2="436.7" y2="94"/>
	<line class="st0" x1="280.2" y1="211.3" x2="441.1" y2="88.7"/>
	<line class="st0" x1="281.1" y1="216.7" x2="445.6" y2="83.3"/>
	<line class="st0" x1="282" y1="222" x2="450" y2="78"/>
	<line class="st0" x1="282.9" y1="227.3" x2="454.4" y2="72.7"/>
	<line class="st0" x1="283.8" y1="232.7" x2="458.9" y2="67.3"/>
	<line class="st0" x1="284.7" y1="238" x2="463.3" y2="62"/>
	<line class="st0" x1="285.6" y1="243.3" x2="467.8" y2="56.7"/>
	<line class="st0" x1="286.4" y1="248.7" x2="472.2" y2="51.3"/>
	<line class="st0" x1="287.3" y1="254" x2="476.7" y2="46"/>
	<line class="st0" x1="288.2" y1="259.3" x2="481.1" y2="40.7"/>
	<line class="st0" x1="289.1" y1="264.7" x2="485.6" y2="35.3"/>
	<line class="st0" x1="290" y1="270" x2="490" y2="30"/>
	<line class="st0" x1="330" y1="270" x2="520" y2="30"/>
	<line class="st0" x1="334.2" y1="264.7" x2="522" y2="35.3"/>
	<line class="st0" x1="338.4" y1="259.3" x2="524" y2="40.7"/>
	<line class="st0" x1="342.7" y1="254" x2="526" y2="46"/>
	<line class="st0" x1="346.9" y1="248.7" x2="528" y2="51.3"/>
	<line class="st0" x1="351.1" y1="243.3" x2="530" y2="56.7"/>
	<line class="st0" x1="355.3" y1="238" x2="532" y2="62"/>
	<line class="st0" x1="359.6" y1="232.7" x2="534" y2="67.3"/>
	<line class="st0" x1="363.8" y1="227.3" x2="536" y2="72.7"/>
	<line class="st0" x1="368" y1="222" x2="538" y2="78"/>
	<line class="st0" x1="372.2" y1="216.7" x2="540" y2="83.3"/>
	<line class="st0" x1="376.4" y1="211.3" x2="542" y2="88.7"/>
	<line class="st0" x1="380.7" y1="206" x2="544" y2="94"/>
	<line class="st0" x1="384.9" y1="200.7" x2="546" y2="99.3"/>
	<line class="st0" x1="389.1" y1="195.3" x2="548" y2="104.7"/>
	<line class="st0" x1="393.3" y1="190" x2="550" y2="110"/>
	<line class="st0" x1="397.6" y1="184.7" x2="552" y2="115.3"/>
	<line class="st0" x1="401.8" y1="179.3" x2="554" y2="120.7"/>
	<line class="st0" x1="406" y1="174" x2="556" y2="126"/>
	<line class="st0" x1="410.2" y1="168.7" x2="558" y2="131.3"/>
	<line class="st0" x1="414.4" y1="163.3" x2="560" y2="136.7"/>
	<line class="st0" x1="418.7" y1="158" x2="562" y2="142"/>
	<line class="st0" x1="422.9" y1="152.7" x2="564" y2="147.3"/>
	<line class="st0" x1="427.1" y1="147.3" x2="566" y2="152.7"/>
	<line class="st0" x1="431.3" y1="142" x2="568" y2="158"/>
	<line class="st0" x1="435.6" y1="136.7" x2="570" y2="163.3"/>
	<line class="st0" x1="439.8" y1="131.3" x2="572" y2="168.7"/>
	<line class="st0" x1="444" y1="126" x2="574" y2="174"/>
	<line class="st0" x1="448.2" y1="120.7" x2="576" y2="179.3"/>
	<line class="st0" x1="452.4" y1="115.3" x2="578" y2="184.7"/>
	<line class="st0" x1="456.7" y1="110" x2="580" y2="190"/>
	<line class="st0" x1="460.9" y1="104.7" x2="582" y2="195.3"/>
	<line class="st0" x1="465.1" y1="99.3" x2="584" y2="200.7"/>
	<line class="st0" x1="469.3" y1="94" x2="586" y2="206"/>
	<line class="st0" x1="473.6" y1="88.7" x2="588" y2="211.3"/>
	<line class="st0" x1="477.8" y1="83.3" x2="590" y2="216.7"/>
	<line class="st0" x1="482" y1="78" x2="592" y2="222"/>
	<line class="st0" x1="486.2" y1="72.7" x2="594" y2="227.3"/>
	<line class="st0" x1="490.4" y1="67.3" x2="596" y2="232.7"/>
	<line class="st0" x1="494.7" y1="62" x2="598" y2="238"/>
	<line class="st0" x1="498.9" y1="56.7" x2="600" y2="243.3"/>
	<line class="st0" x1="503.1" y1="51.3" x2="602" y2="248.7"/>
	<line class="st0" x1="507.3" y1="46" x2="604" y2="254"/>
	<line class="st0" x1="511.6" y1="40.7" x2="606" y2="259.3"/>
	<line class="st0" x1="515.8" y1="35.3" x2="608" y2="264.7"/>
	<line class="st0" x1="520" y1="30" x2="610" y2="270"/>
</g>
</svg>
