<svg width="17" height="17" viewBox="0 0 17 17" fill="none" xmlns="http://www.w3.org/2000/svg">
<path d="M8.5 0.340027C3.8157 0.340027 0 3.69886 0 7.88378C0 9.93971 0.942969 11.7858 2.45437 13.1538C2.22594 13.859 1.71594 14.4155 1.20062 14.8432C0.923047 15.0729 0.657422 15.2695 0.44625 15.4594C0.341328 15.5537 0.245703 15.6493 0.17 15.7675C0.094297 15.8857 0.0265625 16.0544 0.074375 16.235L0.116875 16.3732L0.23375 16.4475C0.672031 16.6999 1.21789 16.7437 1.80625 16.7025C2.39461 16.6614 3.03609 16.5259 3.66562 16.3519C4.8875 16.0146 6.035 15.5338 6.64062 15.2682C7.23828 15.393 7.83859 15.47 8.46812 15.47C13.1524 15.47 16.9681 12.1112 16.9681 7.92628C16.9681 3.74268 13.1856 0.340027 8.5 0.340027ZM8.5 1.02003C12.8589 1.02003 16.2881 4.15307 16.2881 7.92628C16.2881 11.6968 12.8284 14.79 8.46812 14.79C7.84656 14.79 7.26086 14.7289 6.6725 14.5988L6.55562 14.5669L6.46 14.62C5.89156 14.871 4.68961 15.3611 3.485 15.6932C2.88203 15.8592 2.28172 15.9867 1.76375 16.0225C1.41711 16.0464 1.20328 15.9641 0.966875 15.9057C1.13555 15.7609 1.36664 15.5882 1.63625 15.3638C2.22859 14.8724 2.93914 14.1884 3.1875 13.175L3.24062 12.9625L3.07062 12.835C1.5725 11.5653 0.68 9.81753 0.68 7.88378C0.68 4.11323 4.13977 1.02003 8.5 1.02003ZM8.09625 4.35628C7.99398 4.35628 7.95812 4.41604 7.95812 4.48378V5.37628C7.95812 5.47854 8.02851 5.50378 8.09625 5.50378H8.90375C9.00601 5.50378 9.04187 5.44401 9.04187 5.37628V4.48378C9.04187 4.38151 8.97148 4.35628 8.90375 4.35628H8.09625ZM8.12812 6.8319C8.02586 6.8319 7.99 6.90229 7.99 6.97003V11.5282C7.99 11.6304 8.06039 11.6663 8.12812 11.6663V11.6982H8.90375C9.00601 11.6982 9.04187 11.6278 9.04187 11.56V6.97003C9.04187 6.86776 8.97148 6.8319 8.90375 6.8319H8.12812Z" fill="black"/>
</svg>
