<svg class="evalogo" fill="black" viewBox="0 0 680 300" xmlns="http://www.w3.org/2000/svg" xmlns:xlink="http://www.w3.org/1999/xlink"><line x1="100" y1="30" x2="30" y2="30"/><line x1="93.77777777777777" y1="30" x2="30" y2="40.666666666666664"/><line x1="87.55555555555554" y1="30" x2="30" y2="51.33333333333333"/><line x1="81.33333333333331" y1="30" x2="30" y2="61.99999999999999"/><line x1="75.11111111111109" y1="30" x2="30" y2="72.66666666666666"/><line x1="68.88888888888886" y1="30" x2="30" y2="83.33333333333333"/><line x1="62.666666666666636" y1="30" x2="30" y2="94"/><line x1="56.444444444444414" y1="30" x2="30" y2="104.66666666666667"/><line x1="50.22222222222219" y1="30" x2="30" y2="115.33333333333334"/><line x1="43.99999999999997" y1="30" x2="30" y2="126.00000000000001"/><line x1="37.77777777777775" y1="30" x2="30" y2="136.66666666666669"/><line x1="31.55555555555553" y1="30" x2="30" y2="147.33333333333334"/><line x1="210" y1="150" x2="190" y2="30"/><line x1="208.66666666666666" y1="142" x2="183.33333333333334" y2="30"/><line x1="207.33333333333331" y1="134" x2="176.66666666666669" y2="30"/><line x1="205.99999999999997" y1="126" x2="170.00000000000003" y2="30"/><line x1="204.66666666666663" y1="118" x2="163.33333333333337" y2="30"/><line x1="203.3333333333333" y1="110" x2="156.6666666666667" y2="30"/><line x1="201.99999999999994" y1="102" x2="150.00000000000006" y2="30"/><line x1="200.6666666666666" y1="94" x2="143.3333333333334" y2="30"/><line x1="199.33333333333326" y1="86" x2="136.66666666666674" y2="30"/><line x1="197.99999999999991" y1="78" x2="130.00000000000009" y2="30"/><line x1="196.66666666666657" y1="70" x2="123.33333333333341" y2="30"/><line x1="195.33333333333323" y1="62" x2="116.66666666666674" y2="30"/><line x1="193.9999999999999" y1="54" x2="110.00000000000007" y2="30"/><line x1="192.66666666666654" y1="46" x2="103.3333333333334" y2="30"/><line x1="191.3333333333332" y1="38" x2="96.66666666666673" y2="30"/><line x1="189.99999999999986" y1="30" x2="90.00000000000006" y2="30"/><line x1="210" y1="150" x2="90" y2="180"/><line x1="202" y1="152" x2="88.66666666666667" y2="175.33333333333334"/><line x1="194" y1="154" x2="87.33333333333334" y2="170.66666666666669"/><line x1="186" y1="156" x2="86.00000000000001" y2="166.00000000000003"/><line x1="178" y1="158" x2="84.66666666666669" y2="161.33333333333337"/><line x1="170" y1="160" x2="83.33333333333336" y2="156.6666666666667"/><line x1="162" y1="162" x2="82.00000000000003" y2="152.00000000000006"/><line x1="154" y1="164" x2="80.6666666666667" y2="147.3333333333334"/><line x1="146" y1="166" x2="79.33333333333337" y2="142.66666666666674"/><line x1="138" y1="168" x2="78.00000000000004" y2="138.00000000000009"/><line x1="130" y1="170" x2="76.66666666666671" y2="133.33333333333343"/><line x1="122" y1="172" x2="75.33333333333339" y2="128.66666666666677"/><line x1="114" y1="174" x2="74.00000000000006" y2="124.0000000000001"/><line x1="106" y1="176" x2="72.66666666666673" y2="119.33333333333343"/><line x1="98" y1="178" x2="71.3333333333334" y2="114.66666666666676"/><line x1="90" y1="180" x2="70.00000000000007" y2="110.00000000000009"/><line x1="220" y1="270" x2="30" y2="270"/><line x1="211.55555555555554" y1="270" x2="30" y2="264.6666666666667"/><line x1="203.1111111111111" y1="270" x2="30" y2="259.33333333333337"/><line x1="194.66666666666663" y1="270" x2="30" y2="254.00000000000003"/><line x1="186.22222222222217" y1="270" x2="30" y2="248.66666666666669"/><line x1="177.77777777777771" y1="270" x2="30" y2="243.33333333333334"/><line x1="169.33333333333326" y1="270" x2="30" y2="238"/><line x1="160.8888888888888" y1="270" x2="30" y2="232.66666666666666"/><line x1="152.44444444444434" y1="270" x2="30" y2="227.33333333333331"/><line x1="143.9999999999999" y1="270" x2="30" y2="221.99999999999997"/><line x1="135.55555555555543" y1="270" x2="30" y2="216.66666666666663"/><line x1="127.11111111111099" y1="270" x2="30" y2="211.3333333333333"/><line x1="118.66666666666654" y1="270" x2="30" y2="205.99999999999994"/><line x1="110.2222222222221" y1="270" x2="30" y2="200.6666666666666"/><line x1="101.77777777777766" y1="270" x2="30" y2="195.33333333333326"/><line x1="93.33333333333321" y1="270" x2="30" y2="189.99999999999991"/><line x1="84.88888888888877" y1="270" x2="30" y2="184.66666666666657"/><line x1="76.44444444444433" y1="270" x2="30" y2="179.33333333333323"/><line x1="67.99999999999989" y1="270" x2="30" y2="173.9999999999999"/><line x1="59.55555555555544" y1="270" x2="30" y2="168.66666666666654"/><line x1="51.111111111111" y1="270" x2="30" y2="163.3333333333332"/><line x1="42.66666666666656" y1="270" x2="30" y2="157.99999999999986"/><line x1="34.222222222222115" y1="270" x2="30" y2="152.66666666666652"/><line x1="210" y1="30" x2="250" y2="270"/><line x1="210.88888888888889" y1="35.333333333333336" x2="254.44444444444446" y2="264.6666666666667"/><line x1="211.77777777777777" y1="40.66666666666667" x2="258.8888888888889" y2="259.33333333333337"/><line x1="212.66666666666666" y1="46.00000000000001" x2="263.33333333333337" y2="254.00000000000003"/><line x1="213.55555555555554" y1="51.33333333333334" x2="267.7777777777778" y2="248.66666666666669"/><line x1="214.44444444444443" y1="56.66666666666668" x2="272.2222222222223" y2="243.33333333333334"/><line x1="215.33333333333331" y1="62.000000000000014" x2="276.66666666666674" y2="238"/><line x1="216.2222222222222" y1="67.33333333333334" x2="281.1111111111112" y2="232.66666666666666"/><line x1="217.1111111111111" y1="72.66666666666667" x2="285.55555555555566" y2="227.33333333333331"/><line x1="217.99999999999997" y1="78" x2="290.0000000000001" y2="221.99999999999997"/><line x1="218.88888888888886" y1="83.33333333333333" x2="294.44444444444457" y2="216.66666666666663"/><line x1="219.77777777777774" y1="88.66666666666666" x2="298.888888888889" y2="211.3333333333333"/><line x1="220.66666666666663" y1="93.99999999999999" x2="303.3333333333335" y2="205.99999999999994"/><line x1="221.55555555555551" y1="99.33333333333331" x2="307.77777777777794" y2="200.6666666666666"/><line x1="222.4444444444444" y1="104.66666666666664" x2="312.2222222222224" y2="195.33333333333326"/><line x1="223.3333333333333" y1="109.99999999999997" x2="316.66666666666686" y2="189.99999999999991"/><line x1="224.22222222222217" y1="115.3333333333333" x2="321.1111111111113" y2="184.66666666666657"/><line x1="225.11111111111106" y1="120.66666666666663" x2="325.55555555555577" y2="179.33333333333323"/><line x1="225.99999999999994" y1="125.99999999999996" x2="330.0000000000002" y2="173.9999999999999"/><line x1="226.88888888888883" y1="131.3333333333333" x2="334.4444444444447" y2="168.66666666666654"/><line x1="227.77777777777771" y1="136.66666666666663" x2="338.88888888888914" y2="163.3333333333332"/><line x1="228.6666666666666" y1="141.99999999999997" x2="343.3333333333336" y2="157.99999999999986"/><line x1="229.5555555555555" y1="147.33333333333331" x2="347.77777777777806" y2="152.66666666666652"/><line x1="230.44444444444437" y1="152.66666666666666" x2="352.2222222222225" y2="147.33333333333317"/><line x1="231.33333333333326" y1="158" x2="356.66666666666697" y2="141.99999999999983"/><line x1="232.22222222222214" y1="163.33333333333334" x2="361.1111111111114" y2="136.6666666666665"/><line x1="233.11111111111103" y1="168.66666666666669" x2="365.5555555555559" y2="131.33333333333314"/><line x1="233.99999999999991" y1="174.00000000000003" x2="370.00000000000034" y2="125.99999999999982"/><line x1="234.8888888888888" y1="179.33333333333337" x2="374.4444444444448" y2="120.66666666666649"/><line x1="235.7777777777777" y1="184.6666666666667" x2="378.88888888888926" y2="115.33333333333316"/><line x1="236.66666666666657" y1="190.00000000000006" x2="383.3333333333337" y2="109.99999999999983"/><line x1="237.55555555555546" y1="195.3333333333334" x2="387.77777777777817" y2="104.6666666666665"/><line x1="238.44444444444434" y1="200.66666666666674" x2="392.2222222222226" y2="99.33333333333317"/><line x1="239.33333333333323" y1="206.00000000000009" x2="396.6666666666671" y2="93.99999999999984"/><line x1="240.22222222222211" y1="211.33333333333343" x2="401.11111111111154" y2="88.66666666666652"/><line x1="241.111111111111" y1="216.66666666666677" x2="405.555555555556" y2="83.33333333333319"/><line x1="241.9999999999999" y1="222.0000000000001" x2="410.00000000000045" y2="77.99999999999986"/><line x1="242.88888888888877" y1="227.33333333333346" x2="414.4444444444449" y2="72.66666666666653"/><line x1="243.77777777777766" y1="232.6666666666668" x2="418.88888888888937" y2="67.3333333333332"/><line x1="244.66666666666654" y1="238.00000000000014" x2="423.3333333333338" y2="61.999999999999865"/><line x1="245.55555555555543" y1="243.33333333333348" x2="427.7777777777783" y2="56.66666666666653"/><line x1="246.44444444444431" y1="248.66666666666683" x2="432.22222222222274" y2="51.333333333333194"/><line x1="247.3333333333332" y1="254.00000000000017" x2="436.6666666666672" y2="45.99999999999986"/><line x1="248.2222222222221" y1="259.3333333333335" x2="441.11111111111165" y2="40.66666666666652"/><line x1="249.11111111111097" y1="264.6666666666668" x2="445.5555555555561" y2="35.33333333333319"/><line x1="249.99999999999986" y1="270.0000000000001" x2="450.00000000000057" y2="29.999999999999854"/><line x1="290" y1="270" x2="480" y2="30"/><line x1="294.22222222222223" y1="264.6666666666667" x2="482" y2="35.333333333333336"/><line x1="298.44444444444446" y1="259.33333333333337" x2="484" y2="40.66666666666667"/><line x1="302.6666666666667" y1="254.00000000000003" x2="486" y2="46.00000000000001"/><line x1="306.8888888888889" y1="248.66666666666669" x2="488" y2="51.33333333333334"/><line x1="311.11111111111114" y1="243.33333333333334" x2="490" y2="56.66666666666668"/><line x1="315.33333333333337" y1="238" x2="492" y2="62.000000000000014"/><line x1="319.5555555555556" y1="232.66666666666666" x2="494" y2="67.33333333333334"/><line x1="323.7777777777778" y1="227.33333333333331" x2="496" y2="72.66666666666667"/><line x1="328.00000000000006" y1="221.99999999999997" x2="498" y2="78"/><line x1="332.2222222222223" y1="216.66666666666663" x2="500" y2="83.33333333333333"/><line x1="336.4444444444445" y1="211.3333333333333" x2="502" y2="88.66666666666666"/><line x1="340.66666666666674" y1="205.99999999999994" x2="504" y2="93.99999999999999"/><line x1="344.88888888888897" y1="200.6666666666666" x2="506" y2="99.33333333333331"/><line x1="349.1111111111112" y1="195.33333333333326" x2="508" y2="104.66666666666664"/><line x1="353.3333333333334" y1="189.99999999999991" x2="510" y2="109.99999999999997"/><line x1="357.55555555555566" y1="184.66666666666657" x2="512" y2="115.3333333333333"/><line x1="361.7777777777779" y1="179.33333333333323" x2="514" y2="120.66666666666663"/><line x1="366.0000000000001" y1="173.9999999999999" x2="516" y2="125.99999999999996"/><line x1="370.22222222222234" y1="168.66666666666654" x2="518" y2="131.3333333333333"/><line x1="374.44444444444457" y1="163.3333333333332" x2="520" y2="136.66666666666663"/><line x1="378.6666666666668" y1="157.99999999999986" x2="522" y2="141.99999999999997"/><line x1="382.888888888889" y1="152.66666666666652" x2="524" y2="147.33333333333331"/><line x1="387.11111111111126" y1="147.33333333333317" x2="526" y2="152.66666666666666"/><line x1="391.3333333333335" y1="141.99999999999983" x2="528" y2="158"/><line x1="395.5555555555557" y1="136.6666666666665" x2="530" y2="163.33333333333334"/><line x1="399.77777777777794" y1="131.33333333333314" x2="532" y2="168.66666666666669"/><line x1="404.00000000000017" y1="125.99999999999982" x2="534" y2="174.00000000000003"/><line x1="408.2222222222224" y1="120.66666666666649" x2="536" y2="179.33333333333337"/><line x1="412.4444444444446" y1="115.33333333333316" x2="538" y2="184.6666666666667"/><line x1="416.66666666666686" y1="109.99999999999983" x2="540" y2="190.00000000000006"/><line x1="420.8888888888891" y1="104.6666666666665" x2="542" y2="195.3333333333334"/><line x1="425.1111111111113" y1="99.33333333333317" x2="544" y2="200.66666666666674"/><line x1="429.33333333333354" y1="93.99999999999984" x2="546" y2="206.00000000000009"/><line x1="433.55555555555577" y1="88.66666666666652" x2="548" y2="211.33333333333343"/><line x1="437.777777777778" y1="83.33333333333319" x2="550" y2="216.66666666666677"/><line x1="442.0000000000002" y1="77.99999999999986" x2="552" y2="222.0000000000001"/><line x1="446.22222222222246" y1="72.66666666666653" x2="554" y2="227.33333333333346"/><line x1="450.4444444444447" y1="67.3333333333332" x2="556" y2="232.6666666666668"/><line x1="454.6666666666669" y1="61.999999999999865" x2="558" y2="238.00000000000014"/><line x1="458.88888888888914" y1="56.66666666666653" x2="560" y2="243.33333333333348"/><line x1="463.11111111111137" y1="51.333333333333194" x2="562" y2="248.66666666666683"/><line x1="467.3333333333336" y1="45.99999999999986" x2="564" y2="254.00000000000017"/><line x1="471.5555555555558" y1="40.66666666666652" x2="566" y2="259.3333333333335"/><line x1="475.77777777777806" y1="35.33333333333319" x2="568" y2="264.6666666666668"/><line x1="480.0000000000003" y1="29.999999999999854" x2="570" y2="270.0000000000001"/></svg>