<svg class="evalogo" fill="black" viewBox="0 0 680 300" xmlns="http://www.w3.org/2000/svg" xmlns:xlink="http://www.w3.org/1999/xlink"><line x1="180" y1="30" x2="30" y2="30"/><line x1="173.33333333333334" y1="30" x2="30" y2="35.333333333333336"/><line x1="166.66666666666669" y1="30" x2="30" y2="40.66666666666667"/><line x1="160.00000000000003" y1="30" x2="30" y2="46.00000000000001"/><line x1="153.33333333333337" y1="30" x2="30" y2="51.33333333333334"/><line x1="146.6666666666667" y1="30" x2="30" y2="56.66666666666668"/><line x1="140.00000000000006" y1="30" x2="30" y2="62.000000000000014"/><line x1="133.3333333333334" y1="30" x2="30" y2="67.33333333333334"/><line x1="126.66666666666673" y1="30" x2="30" y2="72.66666666666667"/><line x1="120.00000000000006" y1="30" x2="30" y2="78"/><line x1="113.33333333333339" y1="30" x2="30" y2="83.33333333333333"/><line x1="106.66666666666671" y1="30" x2="30" y2="88.66666666666666"/><line x1="100.00000000000004" y1="30" x2="30" y2="93.99999999999999"/><line x1="93.33333333333337" y1="30" x2="30" y2="99.33333333333331"/><line x1="86.6666666666667" y1="30" x2="30" y2="104.66666666666664"/><line x1="80.00000000000003" y1="30" x2="30" y2="109.99999999999997"/><line x1="73.33333333333336" y1="30" x2="30" y2="115.3333333333333"/><line x1="66.66666666666669" y1="30" x2="30" y2="120.66666666666663"/><line x1="60.00000000000002" y1="30" x2="30" y2="125.99999999999996"/><line x1="53.33333333333336" y1="30" x2="30" y2="131.3333333333333"/><line x1="46.66666666666669" y1="30" x2="30" y2="136.66666666666663"/><line x1="40.00000000000003" y1="30" x2="30" y2="141.99999999999997"/><line x1="33.333333333333364" y1="30" x2="30" y2="147.33333333333331"/><line x1="220" y1="270" x2="30" y2="270"/><line x1="211.55555555555554" y1="270" x2="30" y2="264.6666666666667"/><line x1="203.1111111111111" y1="270" x2="30" y2="259.33333333333337"/><line x1="194.66666666666663" y1="270" x2="30" y2="254.00000000000003"/><line x1="186.22222222222217" y1="270" x2="30" y2="248.66666666666669"/><line x1="177.77777777777771" y1="270" x2="30" y2="243.33333333333334"/><line x1="169.33333333333326" y1="270" x2="30" y2="238"/><line x1="160.8888888888888" y1="270" x2="30" y2="232.66666666666666"/><line x1="152.44444444444434" y1="270" x2="30" y2="227.33333333333331"/><line x1="143.9999999999999" y1="270" x2="30" y2="221.99999999999997"/><line x1="135.55555555555543" y1="270" x2="30" y2="216.66666666666663"/><line x1="127.11111111111099" y1="270" x2="30" y2="211.3333333333333"/><line x1="118.66666666666654" y1="270" x2="30" y2="205.99999999999994"/><line x1="110.2222222222221" y1="270" x2="30" y2="200.6666666666666"/><line x1="101.77777777777766" y1="270" x2="30" y2="195.33333333333326"/><line x1="93.33333333333321" y1="270" x2="30" y2="189.99999999999991"/><line x1="84.88888888888877" y1="270" x2="30" y2="184.66666666666657"/><line x1="76.44444444444433" y1="270" x2="30" y2="179.33333333333323"/><line x1="67.99999999999989" y1="270" x2="30" y2="173.9999999999999"/><line x1="59.55555555555544" y1="270" x2="30" y2="168.66666666666654"/><line x1="51.111111111111" y1="270" x2="30" y2="163.3333333333332"/><line x1="42.66666666666656" y1="270" x2="30" y2="157.99999999999986"/><line x1="34.222222222222115" y1="270" x2="30" y2="152.66666666666652"/><line x1="120" y1="150" x2="190" y2="150"/><line x1="120" y1="150" x2="189.31876481190994" y2="152.08759651440099"/><line x1="120" y1="150" x2="187.28831871568232" y2="154.13456033725498"/><line x1="120" y1="150" x2="183.94818203498207" y2="156.101049646137"/><line x1="120" y1="150" x2="179.36336673094982" y2="157.94878896349806"/><line x1="120" y1="150" x2="173.62311101832847" y2="159.6418141452981"/><line x1="120" y1="150" x2="166.83914244512007" y2="161.1471723821609"/><line x1="120" y1="150" x2="159.14350324295228" y2="162.43556358832564"/><line x1="120" y1="150" x2="150.6859802752354" y2="163.4819106944875"/><line x1="120" y1="150" x2="141.63118960624632" y2="164.2658477444273"/><line x1="120" y1="150" x2="132.15537243668513" y2="164.7721162951831"/><line x1="120" y1="150" x2="122.44296476917508" y2="164.99086240528644"/><line x1="120" y1="150" x2="112.68300757126427" y2="164.9178284305241"/><line x1="120" y1="150" x2="103.06546730802327" y2="164.55443589413994"/><line x1="120" y1="150" x2="93.77753846088618" y2="163.9077578185018"/><line x1="120" y1="150" x2="85.00000000000001" y2="162.99038105676658"/><line x1="120" y1="150" x2="76.90369672720392" y2="161.82016130410082"/><line x1="120" y1="150" x2="69.6462139762944" y2="160.41987555688496"/><line x1="120" y1="150" x2="63.36881039375366" y2="158.81677878438708"/><line x1="120" y1="150" x2="58.193668499875095" y2="157.04207344178835"/><line x1="120" y1="150" x2="54.2215165449864" y2="155.130302149885"/><line x1="120" y1="150" x2="51.52966794863359" y2="153.11867536226637"/><line x1="120" y1="150" x2="50.1705164818123" y2="151.04634710616187"/><line x1="120" y1="150" x2="50.1705164818123" y2="148.9536528938381"/><line x1="120" y1="150" x2="51.52966794863363" y2="146.8813246377336"/><line x1="120" y1="150" x2="54.22151654498646" y2="144.86969785011493"/><line x1="120" y1="150" x2="58.19366849987517" y2="142.95792655821162"/><line x1="120" y1="150" x2="63.36881039375376" y2="141.1832212156129"/><line x1="120" y1="150" x2="69.64621397629453" y2="139.580124443115"/><line x1="120" y1="150" x2="76.90369672720402" y2="138.17983869589915"/><line x1="120" y1="150" x2="85.00000000000014" y2="137.0096189432334"/><line x1="120" y1="150" x2="93.77753846088632" y2="136.09224218149816"/><line x1="120" y1="150" x2="103.06546730802344" y2="135.44556410586006"/><line x1="120" y1="150" x2="112.68300757126445" y2="135.0821715694759"/><line x1="120" y1="150" x2="122.44296476917528" y2="135.00913759471356"/><line x1="120" y1="150" x2="132.15537243668535" y2="135.2278837048169"/><line x1="120" y1="150" x2="141.63118960624655" y2="135.73415225557272"/><line x1="120" y1="150" x2="150.68598027523564" y2="136.51808930551252"/><line x1="120" y1="150" x2="159.14350324295248" y2="137.5644364116744"/><line x1="120" y1="150" x2="166.83914244512027" y2="138.85282761783913"/><line x1="120" y1="150" x2="173.62311101832864" y2="140.35818585470196"/><line x1="120" y1="150" x2="179.36336673094996" y2="142.05121103650197"/><line x1="120" y1="150" x2="183.9481820349822" y2="143.89895035386306"/><line x1="120" y1="150" x2="187.2883187156824" y2="145.86543966274508"/><line x1="120" y1="150" x2="189.31876481190997" y2="147.9124034855991"/><line x1="210" y1="30" x2="330" y2="270"/><line x1="212.66666666666666" y1="35.333333333333336" x2="332.6666666666667" y2="264.6666666666667"/><line x1="215.33333333333331" y1="40.66666666666667" x2="335.33333333333337" y2="259.33333333333337"/><line x1="217.99999999999997" y1="46.00000000000001" x2="338.00000000000006" y2="254.00000000000003"/><line x1="220.66666666666663" y1="51.33333333333334" x2="340.66666666666674" y2="248.66666666666669"/><line x1="223.3333333333333" y1="56.66666666666668" x2="343.3333333333334" y2="243.33333333333334"/><line x1="225.99999999999994" y1="62.000000000000014" x2="346.0000000000001" y2="238"/><line x1="228.6666666666666" y1="67.33333333333334" x2="348.6666666666668" y2="232.66666666666666"/><line x1="231.33333333333326" y1="72.66666666666667" x2="351.3333333333335" y2="227.33333333333331"/><line x1="233.99999999999991" y1="78" x2="354.00000000000017" y2="221.99999999999997"/><line x1="236.66666666666657" y1="83.33333333333333" x2="356.66666666666686" y2="216.66666666666663"/><line x1="239.33333333333323" y1="88.66666666666666" x2="359.33333333333354" y2="211.3333333333333"/><line x1="241.9999999999999" y1="93.99999999999999" x2="362.0000000000002" y2="205.99999999999994"/><line x1="244.66666666666654" y1="99.33333333333331" x2="364.6666666666669" y2="200.6666666666666"/><line x1="247.3333333333332" y1="104.66666666666664" x2="367.3333333333336" y2="195.33333333333326"/><line x1="249.99999999999986" y1="109.99999999999997" x2="370.0000000000003" y2="189.99999999999991"/><line x1="252.66666666666652" y1="115.3333333333333" x2="372.66666666666697" y2="184.66666666666657"/><line x1="255.33333333333317" y1="120.66666666666663" x2="375.33333333333366" y2="179.33333333333323"/><line x1="257.99999999999983" y1="125.99999999999996" x2="378.00000000000034" y2="173.9999999999999"/><line x1="260.6666666666665" y1="131.3333333333333" x2="380.666666666667" y2="168.66666666666654"/><line x1="263.3333333333332" y1="136.66666666666663" x2="383.3333333333337" y2="163.3333333333332"/><line x1="265.9999999999999" y1="141.99999999999997" x2="386.0000000000004" y2="157.99999999999986"/><line x1="268.6666666666666" y1="147.33333333333331" x2="388.6666666666671" y2="152.66666666666652"/><line x1="271.33333333333326" y1="152.66666666666666" x2="391.33333333333377" y2="147.33333333333317"/><line x1="273.99999999999994" y1="158" x2="394.00000000000045" y2="141.99999999999983"/><line x1="276.66666666666663" y1="163.33333333333334" x2="396.66666666666714" y2="136.6666666666665"/><line x1="279.3333333333333" y1="168.66666666666669" x2="399.3333333333338" y2="131.33333333333314"/><line x1="282" y1="174.00000000000003" x2="402.0000000000005" y2="125.99999999999982"/><line x1="284.6666666666667" y1="179.33333333333337" x2="404.6666666666672" y2="120.66666666666649"/><line x1="287.33333333333337" y1="184.6666666666667" x2="407.3333333333339" y2="115.33333333333316"/><line x1="290.00000000000006" y1="190.00000000000006" x2="410.00000000000057" y2="109.99999999999983"/><line x1="292.66666666666674" y1="195.3333333333334" x2="412.66666666666725" y2="104.6666666666665"/><line x1="295.3333333333334" y1="200.66666666666674" x2="415.33333333333394" y2="99.33333333333317"/><line x1="298.0000000000001" y1="206.00000000000009" x2="418.0000000000006" y2="93.99999999999984"/><line x1="300.6666666666668" y1="211.33333333333343" x2="420.6666666666673" y2="88.66666666666652"/><line x1="303.3333333333335" y1="216.66666666666677" x2="423.333333333334" y2="83.33333333333319"/><line x1="306.00000000000017" y1="222.0000000000001" x2="426.0000000000007" y2="77.99999999999986"/><line x1="308.66666666666686" y1="227.33333333333346" x2="428.66666666666737" y2="72.66666666666653"/><line x1="311.33333333333354" y1="232.6666666666668" x2="431.33333333333405" y2="67.3333333333332"/><line x1="314.0000000000002" y1="238.00000000000014" x2="434.00000000000074" y2="61.999999999999865"/><line x1="316.6666666666669" y1="243.33333333333348" x2="436.6666666666674" y2="56.66666666666653"/><line x1="319.3333333333336" y1="248.66666666666683" x2="439.3333333333341" y2="51.333333333333194"/><line x1="322.0000000000003" y1="254.00000000000017" x2="442.0000000000008" y2="45.99999999999986"/><line x1="324.66666666666697" y1="259.3333333333335" x2="444.6666666666675" y2="40.66666666666652"/><line x1="327.33333333333366" y1="264.6666666666668" x2="447.33333333333417" y2="35.33333333333319"/><line x1="330.00000000000034" y1="270.0000000000001" x2="450.00000000000085" y2="29.999999999999854"/><line x1="410" y1="270" x2="520" y2="30"/><line x1="412.44444444444446" y1="264.6666666666667" x2="522.8888888888889" y2="35.333333333333336"/><line x1="414.8888888888889" y1="259.33333333333337" x2="525.7777777777778" y2="40.66666666666667"/><line x1="417.33333333333337" y1="254.00000000000003" x2="528.6666666666667" y2="46.00000000000001"/><line x1="419.7777777777778" y1="248.66666666666669" x2="531.5555555555557" y2="51.33333333333334"/><line x1="422.2222222222223" y1="243.33333333333334" x2="534.4444444444446" y2="56.66666666666668"/><line x1="424.66666666666674" y1="238" x2="537.3333333333335" y2="62.000000000000014"/><line x1="427.1111111111112" y1="232.66666666666666" x2="540.2222222222224" y2="67.33333333333334"/><line x1="429.55555555555566" y1="227.33333333333331" x2="543.1111111111113" y2="72.66666666666667"/><line x1="432.0000000000001" y1="221.99999999999997" x2="546.0000000000002" y2="78"/><line x1="434.44444444444457" y1="216.66666666666663" x2="548.8888888888891" y2="83.33333333333333"/><line x1="436.888888888889" y1="211.3333333333333" x2="551.777777777778" y2="88.66666666666666"/><line x1="439.3333333333335" y1="205.99999999999994" x2="554.666666666667" y2="93.99999999999999"/><line x1="441.77777777777794" y1="200.6666666666666" x2="557.5555555555559" y2="99.33333333333331"/><line x1="444.2222222222224" y1="195.33333333333326" x2="560.4444444444448" y2="104.66666666666664"/><line x1="446.66666666666686" y1="189.99999999999991" x2="563.3333333333337" y2="109.99999999999997"/><line x1="449.1111111111113" y1="184.66666666666657" x2="566.2222222222226" y2="115.3333333333333"/><line x1="451.55555555555577" y1="179.33333333333323" x2="569.1111111111115" y2="120.66666666666663"/><line x1="454.0000000000002" y1="173.9999999999999" x2="572.0000000000005" y2="125.99999999999996"/><line x1="456.4444444444447" y1="168.66666666666654" x2="574.8888888888894" y2="131.3333333333333"/><line x1="458.88888888888914" y1="163.3333333333332" x2="577.7777777777783" y2="136.66666666666663"/><line x1="461.3333333333336" y1="157.99999999999986" x2="580.6666666666672" y2="141.99999999999997"/><line x1="463.77777777777806" y1="152.66666666666652" x2="583.5555555555561" y2="147.33333333333331"/><line x1="466.2222222222225" y1="147.33333333333317" x2="586.444444444445" y2="152.66666666666666"/><line x1="468.66666666666697" y1="141.99999999999983" x2="589.3333333333339" y2="158"/><line x1="471.1111111111114" y1="136.6666666666665" x2="592.2222222222229" y2="163.33333333333334"/><line x1="473.5555555555559" y1="131.33333333333314" x2="595.1111111111118" y2="168.66666666666669"/><line x1="476.00000000000034" y1="125.99999999999982" x2="598.0000000000007" y2="174.00000000000003"/><line x1="478.4444444444448" y1="120.66666666666649" x2="600.8888888888896" y2="179.33333333333337"/><line x1="480.88888888888926" y1="115.33333333333316" x2="603.7777777777785" y2="184.6666666666667"/><line x1="483.3333333333337" y1="109.99999999999983" x2="606.6666666666674" y2="190.00000000000006"/><line x1="485.77777777777817" y1="104.6666666666665" x2="609.5555555555563" y2="195.3333333333334"/><line x1="488.2222222222226" y1="99.33333333333317" x2="612.4444444444453" y2="200.66666666666674"/><line x1="490.6666666666671" y1="93.99999999999984" x2="615.3333333333342" y2="206.00000000000009"/><line x1="493.11111111111154" y1="88.66666666666652" x2="618.2222222222231" y2="211.33333333333343"/><line x1="495.555555555556" y1="83.33333333333319" x2="621.111111111112" y2="216.66666666666677"/><line x1="498.00000000000045" y1="77.99999999999986" x2="624.0000000000009" y2="222.0000000000001"/><line x1="500.4444444444449" y1="72.66666666666653" x2="626.8888888888898" y2="227.33333333333346"/><line x1="502.88888888888937" y1="67.3333333333332" x2="629.7777777777787" y2="232.6666666666668"/><line x1="505.3333333333338" y1="61.999999999999865" x2="632.6666666666677" y2="238.00000000000014"/><line x1="507.7777777777783" y1="56.66666666666653" x2="635.5555555555566" y2="243.33333333333348"/><line x1="510.22222222222274" y1="51.333333333333194" x2="638.4444444444455" y2="248.66666666666683"/><line x1="512.6666666666672" y1="45.99999999999986" x2="641.3333333333344" y2="254.00000000000017"/><line x1="515.1111111111117" y1="40.66666666666652" x2="644.2222222222233" y2="259.3333333333335"/><line x1="517.5555555555561" y1="35.33333333333319" x2="647.1111111111122" y2="264.6666666666668"/><line x1="520.0000000000006" y1="29.999999999999854" x2="650.0000000000011" y2="270.0000000000001"/></svg>