<svg width="355" height="347" viewBox="0 0 355 347" fill="none" xmlns="http://www.w3.org/2000/svg">
<path fill-rule="evenodd" clip-rule="evenodd" d="M177.5 0C79.4313 0 0 79.4313 0 177.5C0 256.044 50.8094 322.384 121.366 345.903C130.241 347.456 133.569 342.131 133.569 337.472C133.569 333.256 133.347 319.278 133.347 304.413C88.75 312.622 77.2125 293.541 73.6625 283.556C71.6656 278.453 63.0125 262.7 55.4688 258.484C49.2563 255.156 40.3812 246.947 55.2469 246.725C69.225 246.503 79.2094 259.594 82.5375 264.919C98.5125 291.766 124.028 284.222 134.234 279.563C135.788 268.025 140.447 260.259 145.55 255.822C106.056 251.384 64.7875 236.075 64.7875 168.181C64.7875 148.878 71.6656 132.903 82.9813 120.478C81.2063 116.041 74.9938 97.8469 84.7563 73.4406C84.7563 73.4406 99.6219 68.7813 133.569 91.6344C147.769 87.6406 162.856 85.6438 177.944 85.6438C193.031 85.6438 208.119 87.6406 222.319 91.6344C256.266 68.5594 271.131 73.4406 271.131 73.4406C280.894 97.8469 274.681 116.041 272.906 120.478C284.222 132.903 291.1 148.656 291.1 168.181C291.1 236.297 249.609 251.384 210.116 255.822C216.55 261.369 222.097 272.019 222.097 288.659C222.097 312.4 221.875 331.481 221.875 337.472C221.875 342.131 225.203 347.678 234.078 345.903C269.315 334.007 299.933 311.36 321.625 281.151C343.317 250.941 354.989 214.69 355 177.5C355 79.4313 275.569 0 177.5 0Z" fill="black"/>
</svg>
