<svg width="14" height="18" viewBox="0 0 14 18" fill="none" xmlns="http://www.w3.org/2000/svg">
<path d="M8.40613 0.708763C8.39066 0.711575 8.3752 0.715794 8.36113 0.720013H2.13988C1.45082 0.720013 0.879883 1.28111 0.879883 1.96876V15.8063C0.879883 16.6177 1.55207 17.28 2.36488 17.28H11.6349C12.4477 17.28 13.1199 16.6177 13.1199 15.8063V5.46751C13.1297 5.4197 13.1297 5.36907 13.1199 5.32126V5.22001C13.1227 5.12439 13.0861 5.03017 13.0186 4.96126L8.87863 0.821263C8.80973 0.753763 8.71551 0.7172 8.61988 0.720013H8.50738C8.47504 0.711575 8.43988 0.707356 8.40613 0.708763ZM2.13988 1.44001H8.07988V4.44376C8.07988 5.16798 8.67191 5.76001 9.39613 5.76001H12.3999V15.8063C12.3999 16.2267 12.0596 16.56 11.6349 16.56H2.36488C1.9402 16.56 1.59988 16.2267 1.59988 15.8063V1.96876C1.59988 1.67204 1.83754 1.44001 2.13988 1.44001ZM8.79988 1.77751L12.0624 5.04001H9.39613C9.06004 5.04001 8.79988 4.77986 8.79988 4.44376V1.77751ZM4.11988 9.00001C3.9216 9.00001 3.75988 9.16173 3.75988 9.36001C3.75988 9.55829 3.9216 9.72001 4.11988 9.72001C4.31816 9.72001 4.47988 9.55829 4.47988 9.36001C4.47988 9.16173 4.31816 9.00001 4.11988 9.00001ZM5.55988 9.00001V9.72001H9.87988V9.00001H5.55988ZM4.11988 10.8C3.9216 10.8 3.75988 10.9617 3.75988 11.16C3.75988 11.3583 3.9216 11.52 4.11988 11.52C4.31816 11.52 4.47988 11.3583 4.47988 11.16C4.47988 10.9617 4.31816 10.8 4.11988 10.8ZM5.55988 10.8V11.52H9.87988V10.8H5.55988ZM4.11988 12.6C3.9216 12.6 3.75988 12.7617 3.75988 12.96C3.75988 13.1583 3.9216 13.32 4.11988 13.32C4.31816 13.32 4.47988 13.1583 4.47988 12.96C4.47988 12.7617 4.31816 12.6 4.11988 12.6ZM5.55988 12.6V13.32H9.87988V12.6H5.55988Z" fill="black"/>
</svg>
